<svg width="1920" height="238" viewBox="0 0 1920 238" fill="none" xmlns="http://www.w3.org/2000/svg">
<path d="M1338.41 224.939C1717.81 73.43 1884.22 153.828 1920 212.966V238H90.907H0C923.309 25.757 1111.69 211.878 1338.41 224.939Z" fill="#A0A0A0"/>
<g clip-path="url(#clip0_536_382)">
<path d="M891.962 170.904C891.962 174.35 889.097 177.048 885.851 177.048H879.74L879.873 207.712C879.873 208.229 879.835 208.745 879.778 209.262V212.344C879.778 216.574 876.359 220 872.139 220H869.083C868.873 220 868.663 220 868.453 219.981C868.186 220 867.918 220 867.651 220H856.861C852.641 220 849.222 216.574 849.222 212.344V195.5C849.222 192.112 846.491 189.375 843.111 189.375H830.889C827.509 189.375 824.778 192.112 824.778 195.5V212.344C824.778 216.574 821.359 220 817.139 220H806.464C806.177 220 805.891 219.981 805.604 219.962C805.375 219.981 805.146 220 804.917 220H801.861C797.641 220 794.222 216.574 794.222 212.344V190.906C794.222 190.734 794.222 190.543 794.241 190.37V177.048H788.111C784.674 177.048 782 174.369 782 170.904C782 169.182 782.573 167.65 783.91 166.311L832.875 123.531C834.212 122.191 835.74 122 837.076 122C838.413 122 839.941 122.383 841.087 123.34L889.861 166.311C891.389 167.65 892.153 169.182 891.962 170.904Z" fill="#656A61"/>
</g>
<path d="M1856.1 45.0143C1852.1 13.5729 1828.71 2.37781 1817.51 0.710457C1814.4 -0.290881 1807.48 -0.18117 1804.65 0.710457C1776.06 11.0004 1767.97 37.8685 1767.49 50.0163C1766.79 56.9239 1766.89 71.3108 1767.49 73.5974C1774.35 110.755 1796.07 120.998 1806.08 121.474C1810.2 121.989 1818.76 121.886 1822.51 121.474C1846.52 115.186 1854.91 89.7945 1856.1 77.8849C1857.22 69.0716 1857.15 50.1595 1856.1 45.0143Z" fill="#1A8873"/>
<path d="M1814.16 85.7494V219.375" stroke="#4D3126" stroke-width="5"/>
<path d="M1829.17 91.466L1814.88 109.33L1794.15 97.1826" stroke="#4D3126" stroke-width="4"/>
<path d="M1919.1 64.0143C1915.1 32.5729 1891.71 21.3778 1880.51 19.7105C1877.4 18.7091 1870.48 18.8188 1867.65 19.7105C1839.06 30.0004 1830.97 56.8685 1830.49 69.0163C1829.79 75.9239 1829.89 90.3108 1830.49 92.5974C1837.35 129.755 1859.07 139.998 1869.08 140.474C1873.2 140.989 1881.76 140.886 1885.51 140.474C1909.52 134.186 1917.91 108.795 1919.1 96.8849C1920.22 88.0716 1920.15 69.1595 1919.1 64.0143Z" fill="#6AB796"/>
<path d="M1877.16 104.749V238.375" stroke="#4D3126" stroke-width="5"/>
<path d="M1892.17 110.466L1877.88 128.33L1857.15 116.183" stroke="#4D3126" stroke-width="4"/>
<path d="M1802.85 94.8066C1799.58 69.098 1780.45 59.9442 1771.3 58.5809C1768.75 57.7622 1763.1 57.8519 1760.78 58.5809C1737.41 66.9946 1730.79 88.9637 1730.4 98.8966C1729.82 104.545 1729.91 116.308 1730.4 118.178C1736.01 148.561 1753.77 156.936 1761.95 157.325C1765.32 157.746 1772.32 157.662 1775.39 157.325C1795.02 152.183 1801.88 131.422 1802.85 121.684C1803.77 114.477 1803.71 99.0136 1802.85 94.8066Z" fill="#6AB796"/>
<path d="M1768.56 128.114V237.375" stroke="#4D3126" stroke-width="3"/>
<path d="M1780.83 132.788L1769.15 147.396L1752.2 137.463" stroke="#4D3126" stroke-width="2"/>
<path d="M126.097 45.0143C122.096 13.5729 98.7052 2.37781 87.5101 0.710457C84.397 -0.290881 77.4799 -0.18117 74.6477 0.710457C46.0646 11.0004 37.966 37.8685 37.4897 50.0163C36.7853 56.9239 36.8904 71.3108 37.4897 73.5974C44.3496 110.755 66.0728 120.998 76.0769 121.474C80.1981 121.989 88.759 121.886 92.5122 121.474C116.522 115.186 124.906 89.7945 126.097 77.8849C127.22 69.0716 127.153 50.1595 126.097 45.0143Z" fill="#1A8873"/>
<path d="M84.1621 85.7494V219.375" stroke="#4D3126" stroke-width="5"/>
<path d="M99.1683 91.466L84.8767 109.33L64.1539 97.1826" stroke="#4D3126" stroke-width="4"/>
<path d="M189.097 64.0143C185.096 32.5729 161.705 21.3778 150.51 19.7105C147.397 18.7091 140.48 18.8188 137.648 19.7105C109.065 30.0004 100.966 56.8685 100.49 69.0163C99.7853 75.9239 99.8904 90.3108 100.49 92.5974C107.35 129.755 129.073 139.998 139.077 140.474C143.198 140.989 151.759 140.886 155.512 140.474C179.522 134.186 187.906 108.795 189.097 96.8849C190.22 88.0716 190.153 69.1595 189.097 64.0143Z" fill="#6AB796"/>
<path d="M147.162 104.749V238.375" stroke="#4D3126" stroke-width="5"/>
<path d="M162.168 110.466L147.877 128.33L127.154 116.183" stroke="#4D3126" stroke-width="4"/>
<path d="M72.8517 94.8066C69.5797 69.098 50.4541 59.9442 41.3003 58.5809C38.7548 57.7622 33.0989 57.8519 30.7832 58.5809C7.4118 66.9946 0.789903 88.9637 0.40038 98.8966C-0.175589 104.545 -0.089603 116.308 0.40038 118.178C6.00952 148.561 23.7718 156.936 31.9518 157.325C35.3215 157.746 42.3215 157.662 45.3903 157.325C65.0223 152.183 71.8779 131.422 72.8517 121.684C73.7693 114.477 73.7147 99.0136 72.8517 94.8066Z" fill="#6AB796"/>
<path d="M38.5627 128.114V237.375" stroke="#4D3126" stroke-width="3"/>
<path d="M50.8328 132.788L39.1471 147.396L22.2029 137.463" stroke="#4D3126" stroke-width="2"/>
<path d="M1436.86 117.674C1434.75 101.138 1422.45 95.2506 1416.56 94.3736C1414.93 93.847 1411.29 93.9047 1409.8 94.3736C1394.77 99.7854 1390.51 113.916 1390.26 120.305C1389.89 123.938 1389.94 131.504 1390.26 132.707C1393.87 152.249 1405.29 157.636 1410.55 157.887C1412.72 158.157 1417.22 158.103 1419.2 157.887C1431.82 154.579 1436.23 141.225 1436.86 134.962C1437.45 130.327 1437.41 120.38 1436.86 117.674Z" fill="#1A8873"/>
<path d="M1414.8 139.098V209.375" stroke="#4D3126" stroke-width="3"/>
<path d="M1422.7 142.104L1415.18 151.5L1404.28 145.111" stroke="#4D3126" stroke-width="2"/>
<path d="M1454.12 132.763C1452.36 118.959 1442.09 114.044 1437.18 113.312C1435.81 112.872 1432.77 112.92 1431.53 113.312C1418.98 117.83 1415.42 129.626 1415.21 134.959C1414.91 137.992 1414.95 144.308 1415.21 145.312C1418.23 161.625 1427.76 166.122 1432.16 166.331C1433.97 166.557 1437.72 166.512 1439.37 166.331C1449.91 163.57 1453.59 152.423 1454.12 147.194C1454.61 143.325 1454.58 135.022 1454.12 132.763Z" fill="#6AB796"/>
<path d="M1435.71 150.647V209.313" stroke="#4D3126" stroke-width="3"/>
<path d="M1442.29 153.157L1436.02 161L1426.92 155.666" stroke="#4D3126" stroke-width="2"/>
<path d="M1389.59 131.897C1387.81 117.926 1377.42 112.951 1372.44 112.21C1371.06 111.765 1367.99 111.814 1366.73 112.21C1354.03 116.783 1350.43 128.722 1350.22 134.12C1349.9 137.189 1349.95 143.582 1350.22 144.598C1353.27 161.109 1362.92 165.661 1367.36 165.872C1369.2 166.101 1373 166.056 1374.67 165.872C1385.34 163.078 1389.06 151.795 1389.59 146.503C1390.09 142.587 1390.06 134.183 1389.59 131.897Z" fill="#1A8873"/>
<path d="M1370.96 149.998V209.375" stroke="#4D3126" stroke-width="3"/>
<path d="M1377.63 152.538L1371.27 160.476L1362.07 155.078" stroke="#4D3126" stroke-width="2"/>
<path d="M1404.17 144.645C1402.69 132.982 1394.01 128.83 1389.86 128.211C1388.7 127.84 1386.14 127.88 1385.09 128.211C1374.48 132.028 1371.48 141.995 1371.3 146.501C1371.04 149.063 1371.08 154.4 1371.3 155.248C1373.85 169.031 1381.91 172.831 1385.62 173.007C1387.15 173.198 1390.32 173.16 1391.71 173.007C1400.62 170.675 1403.73 161.256 1404.17 156.838C1404.59 153.569 1404.56 146.554 1404.17 144.645Z" fill="#6AB796"/>
<path d="M1388.62 159.756V209.323" stroke="#4D3126" stroke-width="3"/>
<path d="M1394.18 161.876L1388.88 168.503L1381.2 163.997" stroke="#4D3126" stroke-width="2"/>
<path d="M823.943 151.358C823.943 156.456 819.699 160.449 814.888 160.449H805.832L806.03 205.818C806.03 206.583 805.974 207.348 805.889 208.112V212.672C805.889 218.931 800.823 224 794.569 224H790.042C789.73 224 789.419 224 789.108 223.972C788.712 224 788.315 224 787.919 224H771.931C765.677 224 760.611 218.931 760.611 212.672V187.75C760.611 182.737 756.564 178.688 751.556 178.688H733.444C728.436 178.688 724.389 182.737 724.389 187.75V212.672C724.389 218.931 719.323 224 713.069 224H697.251C696.826 224 696.402 223.972 695.977 223.943C695.638 223.972 695.298 224 694.958 224H690.431C684.177 224 679.111 218.931 679.111 212.672V180.953C679.111 180.698 679.111 180.415 679.139 180.16V160.449H670.056C664.962 160.449 661 156.484 661 151.358C661 148.81 661.849 146.544 663.83 144.562L736.388 81.2656C738.368 79.2832 740.632 79 742.613 79C744.594 79 746.858 79.5664 748.556 80.9824L820.831 144.562C823.094 146.544 824.226 148.81 823.943 151.358Z" fill="#555555"/>
<path d="M1692.47 154.062C1776.76 185.91 1879.28 210.091 1920 218.201V237H0C161.401 85.5006 365.394 167.332 402.382 165.121C662.417 145.216 916.848 197.19 962.802 218.201C1042.38 171.756 1147.74 154.062 1203.78 154.062C1299.5 154.062 1390.5 218.201 1457.09 197.19C1500 187 1587.11 114.252 1692.47 154.062Z" fill="#555555"/>
<defs>
<clipPath id="clip0_536_382">
<rect width="110" height="98" fill="white" transform="translate(782 122)"/>
</clipPath>
</defs>
</svg>
