<svg width="1920" height="116" viewBox="0 0 1920 116" fill="none" xmlns="http://www.w3.org/2000/svg">
<path d="M1338.41 102.939C1717.81 -48.57 1884.22 31.8284 1920 90.9662V116H90.907H0C923.309 -96.243 1111.69 89.8778 1338.41 102.939Z" fill="#A0A0A0"/>
<g clip-path="url(#clip0_517_3)">
<path d="M891.962 48.9043C891.962 52.3496 889.097 55.0484 885.851 55.0484H879.74L879.873 85.7117C879.873 86.2285 879.835 86.7453 879.778 87.2621V90.3438C879.778 94.5738 876.359 98 872.139 98H869.083C868.873 98 868.663 98 868.453 97.9809C868.186 98 867.918 98 867.651 98H856.861C852.641 98 849.222 94.5738 849.222 90.3438V73.5C849.222 70.1121 846.491 67.375 843.111 67.375H830.889C827.509 67.375 824.778 70.1121 824.778 73.5V90.3438C824.778 94.5738 821.359 98 817.139 98H806.464C806.177 98 805.891 97.9809 805.604 97.9617C805.375 97.9809 805.146 98 804.917 98H801.861C797.641 98 794.222 94.5738 794.222 90.3438V68.9062C794.222 68.734 794.222 68.5426 794.241 68.3703V55.0484H788.111C784.674 55.0484 782 52.3688 782 48.9043C782 47.1816 782.573 45.6504 783.91 44.3105L832.875 1.53125C834.212 0.191406 835.74 0 837.076 0C838.413 0 839.941 0.382812 841.087 1.33984L889.861 44.3105C891.389 45.6504 892.153 47.1816 891.962 48.9043Z" fill="#656A61"/>
</g>
<defs>
<clipPath id="clip0_517_3">
<rect width="110" height="98" fill="white" transform="translate(782)"/>
</clipPath>
</defs>
</svg>
