<svg width="118" height="118" viewBox="0 0 118 118" fill="none" xmlns="http://www.w3.org/2000/svg">
<path d="M95.875 47.9375C99.7854 47.9326 103.534 46.377 106.299 43.6119C109.065 40.8468 110.62 37.0979 110.625 33.1875V22.125H99.5625C95.787 22.1306 92.159 23.5913 89.4329 26.2034C87.5226 22.7372 84.7181 19.8465 81.3114 17.8322C77.9046 15.8178 74.0202 14.7535 70.0625 14.75H59V25.8125C59.0068 31.6783 61.34 37.3019 65.4878 41.4497C69.6356 45.5975 75.2592 47.9307 81.125 47.9375H84.8125V95.875H40.5625V77.4375H44.25C48.1604 77.4326 51.9093 75.877 54.6744 73.1119C57.4395 70.3468 58.9951 66.5979 59 62.6875V51.625H47.9375C44.162 51.6306 40.534 53.0913 37.8079 55.7034C35.8976 52.2372 33.0931 49.3465 29.6864 47.3321C26.2796 45.3178 22.3952 44.2535 18.4375 44.25H7.375V55.3125C7.38183 61.1783 9.71504 66.8019 13.8628 70.9497C18.0106 75.0975 23.6342 77.4307 29.5 77.4375H33.1875V95.875H7.375V103.25H110.625V95.875H92.1875V47.9375H95.875ZM92.1875 36.875C92.1895 34.9196 92.9671 33.0449 94.3497 31.6622C95.7324 30.2796 97.6071 29.502 99.5625 29.5H103.25V33.1875C103.248 35.1429 102.47 37.0176 101.088 38.4003C99.7051 39.7829 97.8304 40.5605 95.875 40.5625H92.1875V36.875ZM40.5625 66.375C40.5645 64.4196 41.3421 62.5449 42.7247 61.1622C44.1074 59.7796 45.9821 59.002 47.9375 59H51.625V62.6875C51.623 64.6429 50.8454 66.5176 49.4628 67.9003C48.0801 69.2829 46.2054 70.0605 44.25 70.0625H40.5625V66.375ZM33.1875 70.0625H29.5C25.5896 70.0576 21.8407 68.502 19.0756 65.7369C16.3105 62.9718 14.7549 59.2229 14.75 55.3125V51.625H18.4375C22.3479 51.6299 26.0968 53.1855 28.8619 55.9506C31.627 58.7157 33.1826 62.4646 33.1875 66.375V70.0625ZM84.8125 40.5625H81.125C77.2146 40.5576 73.4657 39.002 70.7006 36.2369C67.9355 33.4718 66.3799 29.7229 66.375 25.8125V22.125H70.0625C73.9729 22.1299 77.7218 23.6855 80.4869 26.4506C83.252 29.2157 84.8076 32.9646 84.8125 36.875V40.5625Z" fill="#1A8873"/>
</svg>
