<svg width="105" height="116" viewBox="0 0 105 116" fill="none" xmlns="http://www.w3.org/2000/svg">
<path d="M86.8587 23.6742C84.7541 7.13834 72.4524 1.25055 66.5646 0.373649C64.9273 -0.152982 61.2894 -0.095282 59.7999 0.373649C44.7673 5.7854 40.5081 19.9161 40.2575 26.3049C39.8871 29.9378 39.9424 37.5043 40.2575 38.7069C43.8654 58.2493 55.2902 63.636 60.5516 63.8865C62.719 64.1572 67.2214 64.1034 69.1954 63.8865C81.8228 60.5794 86.2323 47.2254 86.8587 40.9618C87.4489 36.3266 87.4138 26.3802 86.8587 23.6742Z" fill="#1A8873"/>
<path d="M64.8037 45.0979V115.375" stroke="#4D3126" stroke-width="3"/>
<path d="M72.6962 48.1044L65.1799 57.4998L54.2812 51.1109" stroke="#4D3126" stroke-width="2"/>
<path d="M104.117 38.7628C102.36 24.9589 92.0907 20.0439 87.1756 19.3119C85.8089 18.8723 82.772 18.9205 81.5286 19.3119C68.9797 23.8295 65.4241 35.6256 65.215 40.9589C64.9057 43.9915 64.9519 50.3079 65.215 51.3117C68.2267 67.6254 77.7639 72.1221 82.1561 72.3313C83.9654 72.5572 87.7239 72.5122 89.3717 72.3313C99.9128 69.5705 103.594 58.4228 104.117 53.1941C104.609 49.3247 104.58 41.0217 104.117 38.7628Z" fill="#6AB796"/>
<path d="M85.7058 56.6469V115.313" stroke="#4D3126" stroke-width="3"/>
<path d="M92.2941 59.1566L86.0196 66.9997L76.9216 61.6664" stroke="#4D3126" stroke-width="2"/>
<path d="M39.591 37.8969C37.8128 23.9257 27.4191 18.9511 22.4445 18.2102C21.0612 17.7653 17.9875 17.814 16.729 18.2102C4.02791 22.7826 0.42927 34.7217 0.217585 40.1196C-0.095423 43.1891 -0.0486944 49.582 0.217585 50.598C3.26585 67.1095 12.9187 71.6607 17.3641 71.8724C19.1954 72.1011 22.9994 72.0556 24.6672 71.8724C35.3361 69.0781 39.0618 57.7953 39.591 52.5032C40.0896 48.5869 40.06 40.1832 39.591 37.8969Z" fill="#1A8873"/>
<path d="M20.9568 55.9978V115.375" stroke="#4D3126" stroke-width="3"/>
<path d="M27.625 58.538L21.2745 66.4762L12.0662 61.0782" stroke="#4D3126" stroke-width="2"/>
<path d="M54.1724 50.6453C52.688 38.9824 44.0115 34.8297 39.8588 34.2112C38.704 33.8397 36.1382 33.8804 35.0876 34.2112C24.485 38.0281 21.4809 47.9946 21.3042 52.5007C21.0429 55.063 21.0819 60.3997 21.3042 61.2479C23.8488 75.0313 31.9068 78.8306 35.6178 79.0073C37.1465 79.1982 40.3221 79.1602 41.7143 79.0073C50.6205 76.6747 53.7306 67.2561 54.1724 62.8383C54.5886 59.5691 54.5639 52.5538 54.1724 50.6453Z" fill="#6AB796"/>
<path d="M38.6169 65.7555V115.323" stroke="#4D3126" stroke-width="3"/>
<path d="M44.1833 67.8761L38.882 74.5027L31.1951 69.9966" stroke="#4D3126" stroke-width="2"/>
</svg>
