<svg width="190" height="238" viewBox="0 0 190 238" fill="none" xmlns="http://www.w3.org/2000/svg">
<path d="M126.097 45.0143C122.096 13.5729 98.7052 2.37781 87.5101 0.710457C84.397 -0.290881 77.4799 -0.18117 74.6477 0.710457C46.0646 11.0004 37.966 37.8685 37.4897 50.0163C36.7853 56.9239 36.8904 71.3108 37.4897 73.5974C44.3496 110.755 66.0728 120.998 76.0769 121.474C80.1981 121.989 88.759 121.886 92.5122 121.474C116.522 115.186 124.906 89.7945 126.097 77.8849C127.22 69.0716 127.153 50.1595 126.097 45.0143Z" fill="#1A8873"/>
<path d="M84.1621 85.7494V219.375" stroke="#4D3126" stroke-width="5"/>
<path d="M99.1684 91.466L84.8768 109.33L64.1541 97.1826" stroke="#4D3126" stroke-width="4"/>
<path d="M189.097 64.0143C185.096 32.5729 161.705 21.3778 150.51 19.7105C147.397 18.7091 140.48 18.8188 137.648 19.7105C109.065 30.0004 100.966 56.8685 100.49 69.0163C99.7853 75.9239 99.8904 90.3108 100.49 92.5974C107.35 129.755 129.073 139.998 139.077 140.474C143.198 140.989 151.759 140.886 155.512 140.474C179.522 134.186 187.906 108.795 189.097 96.8849C190.22 88.0716 190.153 69.1595 189.097 64.0143Z" fill="#6AB796"/>
<path d="M147.162 104.749V238.375" stroke="#4D3126" stroke-width="5"/>
<path d="M162.168 110.466L147.877 128.33L127.154 116.183" stroke="#4D3126" stroke-width="4"/>
<path d="M72.8517 94.8066C69.5797 69.098 50.4541 59.9442 41.3003 58.5809C38.7548 57.7622 33.0989 57.8519 30.7832 58.5809C7.4118 66.9946 0.789903 88.9637 0.40038 98.8966C-0.175589 104.545 -0.089603 116.308 0.40038 118.178C6.00952 148.561 23.7718 156.936 31.9518 157.325C35.3215 157.746 42.3215 157.662 45.3903 157.325C65.0223 152.183 71.8779 131.422 72.8517 121.684C73.7693 114.477 73.7147 99.0136 72.8517 94.8066Z" fill="#6AB796"/>
<path d="M38.5627 128.114V237.375" stroke="#4D3126" stroke-width="3"/>
<path d="M50.8328 132.788L39.1471 147.396L22.2029 137.463" stroke="#4D3126" stroke-width="2"/>
</svg>
