<svg width="118" height="118" viewBox="0 0 118 118" fill="none" xmlns="http://www.w3.org/2000/svg">
<path d="M59.0001 5.30078C42.4778 5.30078 29.0391 18.7394 29.0391 35.2617C29.0391 51.784 42.4778 65.2227 59.0001 65.2227C75.5224 65.2227 88.961 51.784 88.961 35.2617C88.961 18.7394 75.5224 5.30078 59.0001 5.30078ZM57.0803 12.4746L54.3667 20.5977L66.3845 19.3386L65.1893 15.3153L68.5597 16.2485V20.712L73.8243 21.0554L72.7945 17.0498L75.5618 15.4472C81.2196 20.1782 84.8126 27.2914 84.8126 35.2617C84.8126 39.1032 83.9771 42.7453 82.4791 46.0182L76.4569 47.0373V54.292C75.3081 55.3461 74.0663 56.2941 72.7466 57.1244L70.1617 53.1032L65.1255 54.4768L66.5405 59.9588C64.0958 60.7005 61.5548 61.0764 59.0001 61.0742C51.8525 61.0742 45.3939 58.1853 40.7246 53.5089L45.3247 52.8746L48.4153 46.8082L38.5715 41.8868L45.5536 35.9347L39.4877 30.8989L33.2897 32.9646C34.0069 24.795 38.5105 17.73 45.0422 13.532L46.3549 24.0312L57.0803 12.4746ZM66.0409 27.2746L57.7048 32.6159L64.989 39.0905L70.2499 37.5528L69.7641 43.8656L79.3954 41.4376L75.7531 33.1827L69.9261 33.2636L75.1059 28.8123L66.0411 27.2746H66.0409ZM57.3815 36.5816L52.93 38.5238L56.0863 40.8709L57.3815 36.5816ZM46.927 37.3085L43.8368 40.9707L52.3981 46.9877L46.927 37.3085ZM60.6998 39.3332L57.5435 45.2417L65.1513 50.4213L62.4801 46.6171L65.7984 42.6515L60.6998 39.3332ZM13.8674 45.6469C11.8351 45.6153 9.75512 48.2035 9.74314 54.8384C9.72516 65.0143 8.73921 67.8866 13.4484 79.3951C16.9015 87.8344 18.45 94.3209 29.5001 99.5625C30.8091 104.177 30.2867 105.262 29.3987 109.205C28.5699 112.887 37.1016 113.563 43.3499 110.462C50.0544 106.805 49.4918 96.736 48.2941 89.9079C46.9012 81.9674 42.5186 80.317 38.7197 76.9252C34.7753 71.2844 33.8573 61.0659 27.46 56.9438C26.1239 56.083 19.3083 55.209 28.6727 78.5945C16.3262 75.5366 18.5752 61.3616 17.6823 50.8668C17.4164 47.7414 15.6604 45.6743 13.8674 45.6466V45.6469ZM104.133 45.6469C102.34 45.6745 100.584 47.7414 100.318 50.867C99.425 61.3616 101.674 75.5366 89.3274 78.5945C98.6921 55.2088 91.8762 56.083 90.5402 56.9438C84.1428 61.0659 83.2251 71.2844 79.2804 76.9254C75.4818 80.317 71.0988 81.9674 69.706 89.9079C68.5083 96.736 67.9457 106.805 74.6503 110.462C80.8985 113.563 89.4302 112.887 88.6012 109.205C87.7135 105.262 87.191 104.177 88.5001 99.5625C99.5501 94.3209 101.099 87.8344 104.552 79.3951C109.261 67.8866 108.275 65.0143 108.257 54.8387C108.245 48.2035 106.165 45.6153 104.133 45.6469Z" fill="#1A8873"/>
</svg>
