<svg width="1920" height="158" viewBox="0 0 1920 158" fill="none" xmlns="http://www.w3.org/2000/svg">
<path d="M823.943 72.3584C823.943 77.4561 819.699 81.4492 814.888 81.4492H805.832L806.03 126.818C806.03 127.583 805.974 128.348 805.889 129.112V133.672C805.889 139.931 800.823 145 794.569 145H790.042C789.73 145 789.419 145 789.108 144.972C788.712 145 788.315 145 787.919 145H771.931C765.677 145 760.611 139.931 760.611 133.672V108.75C760.611 103.737 756.564 99.6875 751.556 99.6875H733.444C728.436 99.6875 724.389 103.737 724.389 108.75V133.672C724.389 139.931 719.323 145 713.069 145H697.251C696.826 145 696.402 144.972 695.977 144.943C695.638 144.972 695.298 145 694.958 145H690.431C684.177 145 679.111 139.931 679.111 133.672V101.953C679.111 101.698 679.111 101.415 679.139 101.16V81.4492H670.056C664.962 81.4492 661 77.4844 661 72.3584C661 69.8096 661.849 67.5439 663.83 65.5615L736.388 2.26562C738.368 0.283203 740.632 0 742.613 0C744.594 0 746.858 0.566406 748.556 1.98242L820.831 65.5615C823.094 67.5439 824.226 69.8096 823.943 72.3584Z" fill="#555555"/>
<path d="M1692.47 75.0624C1776.76 106.91 1879.28 131.091 1920 139.201V158H0C161.401 6.50063 365.394 88.3324 402.382 86.1207C662.417 66.2157 916.848 118.19 962.802 139.201C1042.38 92.7558 1147.74 75.0624 1203.78 75.0624C1299.5 75.0624 1390.5 139.201 1457.09 118.19C1500 108 1587.11 35.2523 1692.47 75.0624Z" fill="#555555"/>
</svg>
