<svg width="307" height="79" viewBox="0 0 307 79" fill="none" xmlns="http://www.w3.org/2000/svg">
<path d="M31.056 53H23.568V39.704H11.424V53H3.936V20.36L11.424 20.072V33.8H23.568V20.36H31.056V53ZM45.0945 53H37.5585V29.72H45.0945V53ZM41.3025 26.504C40.1825 26.504 39.2065 26.104 38.3745 25.304C37.5745 24.472 37.1745 23.496 37.1745 22.376C37.1745 21.224 37.5745 20.248 38.3745 19.448C39.2065 18.616 40.1825 18.2 41.3025 18.2C42.4225 18.2 43.3985 18.616 44.2305 19.448C45.0625 20.248 45.4785 21.224 45.4785 22.376C45.4785 23.496 45.0625 24.472 44.2305 25.304C43.4305 26.104 42.4545 26.504 41.3025 26.504ZM64.7621 48.008V19.64L72.2981 19.112V53H68.4581L64.7621 48.008ZM66.8741 44.408L68.9861 49.256C68.3461 50.024 67.5781 50.744 66.6821 51.416C65.8181 52.056 64.8581 52.568 63.8021 52.952C62.7461 53.336 61.6421 53.528 60.4901 53.528C58.1541 53.528 56.0901 53.064 54.2981 52.136C52.5061 51.208 51.1141 49.848 50.1221 48.056C49.1301 46.232 48.6341 44.008 48.6341 41.384C48.6341 38.76 49.1301 36.536 50.1221 34.712C51.1461 32.856 52.5541 31.448 54.3461 30.488C56.1701 29.496 58.3141 29 60.7781 29C61.7701 29 62.7621 29.176 63.7541 29.528C64.7461 29.88 65.6901 30.376 66.5861 31.016C67.5141 31.656 68.3141 32.424 68.9861 33.32L66.8741 37.976C65.8501 36.952 64.8741 36.216 63.9461 35.768C63.0181 35.288 62.0741 35.048 61.1141 35.048C60.1861 35.048 59.3541 35.32 58.6181 35.864C57.9141 36.376 57.3701 37.112 56.9861 38.072C56.6021 39 56.4101 40.104 56.4101 41.384C56.4101 42.632 56.6021 43.72 56.9861 44.648C57.3701 45.544 57.9301 46.248 58.6661 46.76C59.4021 47.272 60.2821 47.528 61.3061 47.528C62.2341 47.528 63.1301 47.256 63.9941 46.712C64.8901 46.168 65.8501 45.4 66.8741 44.408ZM85.3133 53H77.7773V29.768H81.6172L83.7293 33.08C84.3693 32.568 85.1373 32.056 86.0333 31.544C86.9293 31.032 87.8573 30.6 88.8173 30.248C89.8093 29.896 90.7213 29.72 91.5533 29.72L93.0893 35.72C92.3533 35.72 91.5213 35.864 90.5933 36.152C89.6973 36.44 88.7853 36.84 87.8573 37.352C86.9293 37.832 86.0813 38.408 85.3133 39.08V53ZM107.387 53.528C104.859 53.528 102.635 53.064 100.715 52.136C98.7945 51.208 97.2905 49.832 96.2025 48.008C95.1465 46.152 94.6185 43.928 94.6185 41.336C94.6505 38.744 95.2105 36.536 96.2985 34.712C97.4185 32.888 98.9385 31.48 100.859 30.488C102.811 29.496 105.019 29 107.483 29C110.011 29 112.235 29.48 114.155 30.44C116.075 31.4 117.579 32.808 118.667 34.664C119.755 36.488 120.299 38.728 120.299 41.384C120.299 43.912 119.739 46.088 118.619 47.912C117.499 49.736 115.963 51.128 114.011 52.088C112.091 53.048 109.883 53.528 107.387 53.528ZM107.435 47.336C108.491 47.336 109.387 47.096 110.123 46.616C110.891 46.104 111.483 45.4 111.899 44.504C112.315 43.608 112.523 42.568 112.523 41.384C112.523 40.2 112.315 39.144 111.899 38.216C111.515 37.288 110.939 36.568 110.171 36.056C109.435 35.512 108.555 35.24 107.531 35.24C106.507 35.24 105.595 35.496 104.795 36.008C104.027 36.52 103.435 37.224 103.019 38.12C102.603 39.016 102.395 40.088 102.395 41.336C102.395 42.488 102.603 43.528 103.019 44.456C103.435 45.352 104.011 46.056 104.747 46.568C105.515 47.08 106.411 47.336 107.435 47.336ZM131.631 63.032L124.143 63.512V29.768H127.935L131.631 33.848V63.032ZM129.183 38.168L127.071 33.32C127.711 32.52 128.463 31.8 129.327 31.16C130.223 30.488 131.199 29.96 132.255 29.576C133.311 29.192 134.415 29 135.567 29C137.935 29 139.999 29.464 141.759 30.392C143.519 31.32 144.895 32.696 145.887 34.52C146.879 36.312 147.375 38.52 147.375 41.144C147.375 43.768 146.879 46.008 145.887 47.864C144.895 49.688 143.503 51.096 141.711 52.088C139.919 53.048 137.759 53.528 135.231 53.528C134.303 53.528 133.327 53.352 132.303 53C131.311 52.68 130.351 52.2 129.423 51.56C128.527 50.888 127.743 50.104 127.071 49.208L129.183 44.552C130.175 45.608 131.135 46.376 132.063 46.856C133.023 47.304 133.983 47.528 134.943 47.528C135.903 47.528 136.735 47.272 137.439 46.76C138.143 46.216 138.687 45.464 139.071 44.504C139.455 43.544 139.647 42.44 139.647 41.192C139.647 39.912 139.455 38.824 139.071 37.928C138.687 37 138.127 36.296 137.391 35.816C136.687 35.304 135.807 35.048 134.751 35.048C133.823 35.048 132.911 35.32 132.015 35.864C131.151 36.408 130.207 37.176 129.183 38.168ZM162.324 53.528C159.796 53.528 157.572 53.064 155.652 52.136C153.732 51.208 152.228 49.832 151.14 48.008C150.084 46.152 149.556 43.928 149.556 41.336C149.588 38.744 150.148 36.536 151.236 34.712C152.356 32.888 153.876 31.48 155.796 30.488C157.748 29.496 159.956 29 162.42 29C164.948 29 167.172 29.48 169.092 30.44C171.012 31.4 172.516 32.808 173.604 34.664C174.692 36.488 175.236 38.728 175.236 41.384C175.236 43.912 174.676 46.088 173.556 47.912C172.436 49.736 170.9 51.128 168.948 52.088C167.028 53.048 164.82 53.528 162.324 53.528ZM162.372 47.336C163.428 47.336 164.324 47.096 165.06 46.616C165.828 46.104 166.42 45.4 166.836 44.504C167.252 43.608 167.46 42.568 167.46 41.384C167.46 40.2 167.252 39.144 166.836 38.216C166.452 37.288 165.876 36.568 165.108 36.056C164.372 35.512 163.492 35.24 162.468 35.24C161.444 35.24 160.532 35.496 159.732 36.008C158.964 36.52 158.372 37.224 157.956 38.12C157.54 39.016 157.332 40.088 157.332 41.336C157.332 42.488 157.54 43.528 157.956 44.456C158.372 45.352 158.948 46.056 159.684 46.568C160.452 47.08 161.348 47.336 162.372 47.336ZM186.329 53H178.793V29.72H183.449L184.745 32.168C185.641 31.592 186.601 31.064 187.625 30.584C188.681 30.072 189.737 29.672 190.793 29.384C191.881 29.096 192.953 28.952 194.009 28.952C196.057 28.952 197.673 29.368 198.857 30.2C200.041 31 200.889 32.104 201.401 33.512C201.945 34.888 202.217 36.456 202.217 38.216V53H194.729V38.744C194.729 37.624 194.489 36.744 194.009 36.104C193.529 35.432 192.793 35.096 191.801 35.096C191.225 35.096 190.601 35.208 189.929 35.432C189.289 35.624 188.649 35.88 188.009 36.2C187.401 36.52 186.841 36.824 186.329 37.112V53ZM214.595 53H207.059V29.72H214.595V53ZM210.803 26.504C209.683 26.504 208.707 26.104 207.875 25.304C207.075 24.472 206.675 23.496 206.675 22.376C206.675 21.224 207.075 20.248 207.875 19.448C208.707 18.616 209.683 18.2 210.803 18.2C211.923 18.2 212.899 18.616 213.731 19.448C214.563 20.248 214.979 21.224 214.979 22.376C214.979 23.496 214.563 24.472 213.731 25.304C212.931 26.104 211.955 26.504 210.803 26.504ZM227.542 53H220.054V19.64L227.542 19.112V37.256L236.902 29.048L241.27 34.28L234.934 39.464L243.142 53H234.79L229.606 43.784L227.542 45.464V53Z" fill="#1A8873"/>
<path d="M268.065 53L258.993 40.136L256.113 42.968V53H248.577V20.36H256.113V32.84L269.745 19.64L275.457 23.864L264.273 34.904L277.521 53H268.065ZM296.256 29.768H303.744V53.048H299.568L297.792 50.6C296.928 51.176 295.968 51.704 294.912 52.184C293.888 52.664 292.832 53.048 291.744 53.336C290.656 53.656 289.6 53.816 288.576 53.816C286.528 53.816 284.896 53.416 283.68 52.616C282.496 51.784 281.632 50.68 281.088 49.304C280.576 47.896 280.32 46.312 280.32 44.552V29.768H287.856V43.976C287.856 45.064 288.096 45.944 288.576 46.616C289.056 47.288 289.792 47.624 290.784 47.624C291.36 47.624 291.984 47.528 292.656 47.336C293.328 47.112 293.968 46.84 294.576 46.52C295.184 46.2 295.744 45.896 296.256 45.608V29.768Z" fill="#656A61"/>
</svg>
