<svg width="118" height="118" viewBox="0 0 118 118" fill="none" xmlns="http://www.w3.org/2000/svg">
<path d="M9.83337 88.5V78.6667C12.9473 78.6667 15.263 77.8472 16.7806 76.2083C18.2982 74.5694 21.4728 73.75 26.3042 73.75C31.1389 73.75 34.3151 74.5694 35.8327 76.2083C37.3503 77.8472 39.5825 78.6667 42.5292 78.6667C45.6431 78.6667 47.9588 77.8472 49.4765 76.2083C50.9941 74.5694 54.1686 73.75 59 73.75C63.6709 73.75 66.847 74.5694 68.5285 76.2083C70.21 77.8472 72.5242 78.6667 75.4709 78.6667C78.5848 78.6667 80.8595 77.8472 82.2952 76.2083C83.7309 74.5694 86.8644 73.75 91.6959 73.75C96.5306 73.75 99.7068 74.5694 101.224 76.2083C102.742 77.8472 105.056 78.6667 108.167 78.6667V88.5C103.496 88.5 100.321 87.6806 98.6431 86.0417C96.9649 84.4028 94.6492 83.5833 91.6959 83.5833C88.7459 83.5833 86.5137 84.4028 84.9994 86.0417C83.485 87.6806 80.3089 88.5 75.4709 88.5C70.8 88.5 67.6255 87.6806 65.9473 86.0417C64.2691 84.4028 61.9533 83.5833 59 83.5833C55.8862 83.5833 53.5704 84.4028 52.0528 86.0417C50.5352 87.6806 47.3607 88.5 42.5292 88.5C37.6945 88.5 34.5593 87.6806 33.1236 86.0417C31.688 84.4028 29.4148 83.5833 26.3042 83.5833C23.1903 83.5833 20.8762 84.4028 19.3619 86.0417C17.8475 87.6806 14.6714 88.5 9.83337 88.5ZM9.83337 68.8333V59C12.9473 59 15.263 58.1806 16.7806 56.5417C18.2982 54.9028 21.4728 54.0833 26.3042 54.0833C30.975 54.0833 34.1102 54.9028 35.7098 56.5417C37.3093 58.1806 39.5825 59 42.5292 59C45.6431 59 47.9572 58.1806 49.4715 56.5417C50.9859 54.9028 54.162 54.0833 59 54.0833C63.6709 54.0833 66.8257 54.9028 68.4646 56.5417C70.1035 58.1806 72.357 59 75.225 59C78.3389 59 80.653 58.1806 82.1674 56.5417C83.6817 54.9028 86.8579 54.0833 91.6959 54.0833C96.3667 54.0833 99.5429 54.9028 101.224 56.5417C102.906 58.1806 105.22 59 108.167 59V68.8333C103.332 68.8333 100.115 68.0139 98.5153 66.375C96.9157 64.7361 94.6426 63.9167 91.6959 63.9167C88.7459 63.9167 86.5137 64.7361 84.9994 66.375C83.485 68.0139 80.3089 68.8333 75.4709 68.8333C70.8 68.8333 67.6255 68.0139 65.9473 66.375C64.2691 64.7361 61.9533 63.9167 59 63.9167C55.8862 63.9167 53.6114 64.7361 52.1757 66.375C50.74 68.0139 47.6065 68.8333 42.775 68.8333C37.9403 68.8333 34.7248 68.0139 33.1285 66.375C31.5323 64.7361 29.2575 63.9167 26.3042 63.9167C23.3542 63.9167 21.0401 64.7361 19.3619 66.375C17.6837 68.0139 14.5075 68.8333 9.83337 68.8333ZM9.83337 49.1667V39.3333C12.9473 39.3333 15.263 38.5139 16.7806 36.875C18.2982 35.2361 21.4728 34.4167 26.3042 34.4167C30.975 34.4167 34.1102 35.2361 35.7098 36.875C37.3093 38.5139 39.5825 39.3333 42.5292 39.3333C45.6431 39.3333 47.9572 38.5139 49.4715 36.875C50.9859 35.2361 54.162 34.4167 59 34.4167C63.6709 34.4167 66.8257 35.2361 68.4646 36.875C70.1035 38.5139 72.357 39.3333 75.225 39.3333C78.3389 39.3333 80.653 38.5139 82.1674 36.875C83.6817 35.2361 86.8579 34.4167 91.6959 34.4167C96.3667 34.4167 99.5429 35.2361 101.224 36.875C102.906 38.5139 105.22 39.3333 108.167 39.3333V49.1667C103.332 49.1667 100.115 48.3472 98.5153 46.7083C96.9157 45.0694 94.6426 44.25 91.6959 44.25C88.7459 44.25 86.5137 45.0694 84.9994 46.7083C83.485 48.3472 80.3089 49.1667 75.4709 49.1667C70.8 49.1667 67.6255 48.3472 65.9473 46.7083C64.2691 45.0694 61.9533 44.25 59 44.25C55.8862 44.25 53.6114 45.0694 52.1757 46.7083C50.74 48.3472 47.6065 49.1667 42.775 49.1667C37.9403 49.1667 34.7248 48.3472 33.1285 46.7083C31.5323 45.0694 29.2575 44.25 26.3042 44.25C23.3542 44.25 21.0401 45.0694 19.3619 46.7083C17.6837 48.3472 14.5075 49.1667 9.83337 49.1667Z" fill="#1A8873"/>
</svg>
