<svg width="118" height="118" viewBox="0 0 118 118" fill="none" xmlns="http://www.w3.org/2000/svg">
<path d="M98.3333 9.83334H19.6666C14.2583 9.83334 9.83325 14.2583 9.83325 19.6667V98.3333C9.83325 103.742 14.2583 108.167 19.6666 108.167H98.3333C103.742 108.167 108.167 103.742 108.167 98.3333V19.6667C108.167 14.2583 103.742 9.83334 98.3333 9.83334ZM75.2249 19.6667C71.2916 25.075 68.8333 31.9583 68.8333 39.3333H49.1666C49.1666 31.4667 53.0999 24.0917 58.9999 19.6667H75.2249ZM68.8333 68.8333H49.1666C49.1666 61.4583 46.7083 54.575 42.7749 49.1667H58.9999C64.8999 53.5917 68.8333 60.9667 68.8333 68.8333ZM19.6666 19.6667H45.7249C41.7916 25.075 39.3333 31.9583 39.3333 39.3333H19.6666V19.6667ZM19.6666 49.1667H29.4999C35.3999 53.5917 39.3333 60.475 39.3333 68.8333H19.6666V49.1667ZM19.6666 98.3333V78.6667H45.7249C41.7916 84.075 39.3333 90.9583 39.3333 98.3333H19.6666ZM49.1666 98.3333C49.1666 90.4667 53.0999 83.0917 58.9999 78.6667H75.2249C71.2916 84.075 68.8333 90.9583 68.8333 98.3333H49.1666ZM98.3333 98.3333H78.6666C78.6666 90.4667 82.5999 83.0917 88.4999 78.6667H98.3333V98.3333ZM98.3333 68.8333H78.6666C78.6666 61.4583 76.2083 54.575 72.2749 49.1667H98.3333V68.8333ZM98.3333 39.3333H78.6666C78.6666 31.4667 82.5999 24.0917 88.4999 19.6667H98.3333V39.3333Z" fill="#1A8873"/>
</svg>
